<?xml version="1.0" encoding="UTF-8"?>
<svg fill="none" version="1.1" viewBox="0 0 512 512" xmlns="http://www.w3.org/2000/svg" xmlns:cc="http://creativecommons.org/ns#" xmlns:dc="http://purl.org/dc/elements/1.1/" xmlns:rdf="http://www.w3.org/1999/02/22-rdf-syntax-ns#">
<metadata>
<rdf:RDF>
<cc:Work rdf:about="">
<dc:format>image/svg+xml</dc:format>
<dc:type rdf:resource="http://purl.org/dc/dcmitype/StillImage"/>
<dc:title/>
</cc:Work>
</rdf:RDF>
</metadata>
<path d="m18 18h476v476h-476z" fill="none" stroke="#000" stroke-width="4"/>
<circle cx="448" cy="64" r="22" fill="none" stroke="#000" stroke-width="4"/>
<text x="104" y="-132" fill="#000000" font-family="Oxanium" font-size="53.333px" letter-spacing="0px" text-align="center" text-anchor="middle" word-spacing="0px" style="line-height:1" xml:space="preserve"><tspan x="104" y="-132"/></text>
<path d="m8 535.27v-15.271h3.0417l3.6146 10.812q0.5 1.5104 0.72917 2.2604 0.26042-0.83334 0.8125-2.4479l3.6562-10.625h2.7187v15.271h-1.9479v-12.781l-4.4375 12.781h-1.8229l-4.4167-13v13z" fill="#000" style="font-feature-settings:normal;font-variant-caps:normal;font-variant-ligatures:normal;font-variant-numeric:normal"/>
<path d="m32.833 533.91q-1.0417 0.88541-2.0104 1.25-0.95833 0.36458-2.0625 0.36458-1.8229 0-2.8021-0.88542-0.97916-0.89583-0.97916-2.2812 0-0.8125 0.36458-1.4792 0.375-0.67708 0.96875-1.0833 0.60417-0.40625 1.3542-0.61458 0.55208-0.14583 1.6667-0.28125 2.2708-0.27083 3.3437-0.64583 0.01042-0.38542 0.01042-0.48958 0-1.1458-0.53125-1.6146-0.71875-0.63541-2.1354-0.63541-1.3229 0-1.9583 0.46875-0.625 0.45833-0.92708 1.6354l-1.8333-0.25q0.25-1.1771 0.82292-1.8958 0.57292-0.72916 1.6562-1.1146 1.0833-0.39583 2.5104-0.39583 1.4167 0 2.3021 0.33333 0.88541 0.33333 1.3021 0.84375 0.41666 0.5 0.58333 1.2708 0.09375 0.47917 0.09375 1.7292v2.5q0 2.6146 0.11458 3.3125 0.125 0.68749 0.47916 1.3229h-1.9583q-0.29167-0.58333-0.375-1.3646zm-0.15625-4.1875q-1.0208 0.41666-3.0625 0.70833-1.1562 0.16666-1.6354 0.375-0.47917 0.20833-0.73958 0.61458-0.26042 0.39583-0.26042 0.88541 0 0.75 0.5625 1.25 0.57292 0.5 1.6667 0.5 1.0833 0 1.9271-0.46875 0.84375-0.47916 1.2396-1.3021 0.30208-0.63541 0.30208-1.875z" fill="#000" style="font-feature-settings:normal;font-variant-caps:normal;font-variant-ligatures:normal;font-variant-numeric:normal"/>
<path d="m44.667 535.27v-1.3958q-1.0521 1.6458-3.0937 1.6458-1.3229 0-2.4375-0.72917-1.1042-0.72916-1.7187-2.0312-0.60416-1.3125-0.60416-3.0104 0-1.6562 0.55208-3 0.55208-1.3542 1.6562-2.0729 1.1042-0.71875 2.4687-0.71875 1 0 1.7812 0.42708 0.78125 0.41667 1.2708 1.0938v-5.4792h1.8646v15.271zm-5.9271-5.5208q0 2.125 0.89583 3.1771 0.89583 1.0521 2.1146 1.0521 1.2292 0 2.0833-1 0.86458-1.0104 0.86458-3.0729 0-2.2708-0.875-3.3333-0.875-1.0625-2.1562-1.0625-1.25 0-2.0937 1.0208-0.83333 1.0208-0.83333 3.2188z" fill="#000" style="font-feature-settings:normal;font-variant-caps:normal;font-variant-ligatures:normal;font-variant-numeric:normal"/>
<path d="m56.937 531.71 1.9375 0.23958q-0.45833 1.6979-1.6979 2.6354t-3.1667 0.9375q-2.4271 0-3.8542-1.4896-1.4167-1.5-1.4167-4.1979 0-2.7917 1.4375-4.3333 1.4375-1.5417 3.7292-1.5417 2.2188 0 3.625 1.5104 1.4062 1.5104 1.4062 4.25 0 0.16666-0.0104 0.49999h-8.25q0.10417 1.8229 1.0312 2.7917t2.3125 0.96875q1.0312 0 1.7604-0.54167 0.72917-0.54167 1.1562-1.7292zm-6.1562-3.0312h6.1771q-0.125-1.3958-0.70834-2.0938-0.89583-1.0833-2.3229-1.0833-1.2917 0-2.1771 0.86458-0.875 0.86459-0.96875 2.3125z" fill="#000" style="font-feature-settings:normal;font-variant-caps:normal;font-variant-ligatures:normal;font-variant-numeric:normal"/>
<path d="m68.885 535.27h-1.7396v-15.271h1.875v5.4479q1.1875-1.4896 3.0312-1.4896 1.0208 0 1.9271 0.41666 0.91667 0.40625 1.5 1.1562 0.59375 0.73958 0.92708 1.7917 0.33334 1.0521 0.33334 2.25 0 2.8438-1.4062 4.3958t-3.375 1.5521q-1.9583 0-3.0729-1.6354zm-0.0208-5.6146q0 1.9896 0.54167 2.875 0.88541 1.4479 2.3958 1.4479 1.2292 0 2.125-1.0625 0.89583-1.0729 0.89583-3.1875 0-2.1667-0.86458-3.1979-0.85416-1.0312-2.0729-1.0312-1.2292 0-2.125 1.0729-0.89583 1.0625-0.89583 3.0833z" fill="#000" style="font-feature-settings:normal;font-variant-caps:normal;font-variant-ligatures:normal;font-variant-numeric:normal"/>
<path d="m78.948 539.53-0.20834-1.7604q0.61458 0.16666 1.0729 0.16666 0.625 0 0.99999-0.20833 0.375-0.20833 0.61459-0.58333 0.17708-0.28125 0.57291-1.3958 0.0521-0.15625 0.16667-0.45834l-4.1979-11.083h2.0208l2.3021 6.4062q0.44792 1.2188 0.80208 2.5625 0.32292-1.2917 0.77083-2.5208l2.3646-6.4479h1.875l-4.2083 11.25q-0.67708 1.8229-1.0521 2.5104-0.5 0.92708-1.1458 1.3542-0.64583 0.4375-1.5417 0.4375-0.54167 0-1.2083-0.22917z" fill="#000" style="font-feature-settings:normal;font-variant-caps:normal;font-variant-ligatures:normal;font-variant-numeric:normal"/>
<path d="m95.771 535.27v-15.271h2.0208v13.469h7.5208v1.8021z" fill="#000" style="font-feature-settings:normal;font-variant-caps:normal;font-variant-ligatures:normal;font-variant-numeric:normal"/>
<path d="m107.5 522.16v-2.1562h1.875v2.1562zm0 13.115v-11.062h1.875v11.062z" fill="#000" style="font-feature-settings:normal;font-variant-caps:normal;font-variant-ligatures:normal;font-variant-numeric:normal"/>
<path d="m112.2 535.27v-15.271h1.875v15.271z" fill="#000" style="font-feature-settings:normal;font-variant-caps:normal;font-variant-ligatures:normal;font-variant-numeric:normal"/>
<path d="m116.24 531.97 1.8542-0.29166q0.15625 1.1146 0.86458 1.7083 0.71875 0.59375 2 0.59375 1.2917 0 1.9167-0.52084 0.625-0.53125 0.625-1.2396 0-0.63541-0.55208-1-0.38542-0.25-1.9167-0.63541-2.0625-0.52084-2.8646-0.89583-0.79167-0.38542-1.2083-1.0521-0.40625-0.67708-0.40625-1.4896 0-0.73958 0.33334-1.3646 0.34375-0.63541 0.92708-1.0521 0.4375-0.32292 1.1875-0.54167 0.76041-0.22916 1.625-0.22916 1.3021 0 2.2812 0.375 0.98958 0.375 1.4583 1.0208 0.46875 0.63541 0.64583 1.7083l-1.8333 0.25q-0.125-0.85417-0.72916-1.3333-0.59375-0.47917-1.6875-0.47917-1.2917 0-1.8438 0.42708-0.55208 0.42709-0.55208 1 0 0.36459 0.22917 0.65625 0.22916 0.30208 0.71875 0.5 0.28125 0.10417 1.6562 0.47917 1.9896 0.53125 2.7708 0.875 0.79167 0.33333 1.2396 0.97916 0.44792 0.64583 0.44792 1.6042 0 0.93749-0.55208 1.7708-0.54167 0.82291-1.5729 1.2812-1.0312 0.44792-2.3333 0.44792-2.1562 0-3.2917-0.89583-1.125-0.89583-1.4375-2.6562z" fill="#000" style="font-feature-settings:normal;font-variant-caps:normal;font-variant-ligatures:normal;font-variant-numeric:normal"/>
<path d="m127.66 535.27v-15.271h1.875v5.4792q1.3125-1.5208 3.3125-1.5208 1.2292 0 2.1354 0.48958 0.90625 0.47917 1.2917 1.3333 0.39584 0.85417 0.39584 2.4792v7.0104h-1.875v-7.0104q0-1.4062-0.61458-2.0417-0.60417-0.64583-1.7188-0.64583-0.83333 0-1.5729 0.4375-0.72916 0.42708-1.0417 1.1667t-0.3125 2.0417v6.0521z" fill="#000" style="font-feature-settings:normal;font-variant-caps:normal;font-variant-ligatures:normal;font-variant-numeric:normal"/>
<path d="m146.75 533.91q-1.0417 0.88541-2.0104 1.25-0.95833 0.36458-2.0625 0.36458-1.8229 0-2.8021-0.88542-0.97917-0.89583-0.97917-2.2812 0-0.8125 0.36458-1.4792 0.375-0.67708 0.96875-1.0833 0.60417-0.40625 1.3542-0.61458 0.55208-0.14583 1.6667-0.28125 2.2708-0.27083 3.3438-0.64583 0.0104-0.38542 0.0104-0.48958 0-1.1458-0.53125-1.6146-0.71875-0.63541-2.1354-0.63541-1.3229 0-1.9583 0.46875-0.625 0.45833-0.92708 1.6354l-1.8333-0.25q0.25-1.1771 0.82291-1.8958 0.57292-0.72916 1.6562-1.1146 1.0833-0.39583 2.5104-0.39583 1.4167 0 2.3021 0.33333 0.88542 0.33333 1.3021 0.84375 0.41667 0.5 0.58334 1.2708 0.0937 0.47917 0.0937 1.7292v2.5q0 2.6146 0.11458 3.3125 0.125 0.68749 0.47917 1.3229h-1.9583q-0.29167-0.58333-0.375-1.3646zm-0.15625-4.1875q-1.0208 0.41666-3.0625 0.70833-1.1562 0.16666-1.6354 0.375-0.47917 0.20833-0.73959 0.61458-0.26041 0.39583-0.26041 0.88541 0 0.75 0.5625 1.25 0.57291 0.5 1.6667 0.5 1.0833 0 1.9271-0.46875 0.84375-0.47916 1.2396-1.3021 0.30209-0.63541 0.30209-1.875z" fill="#000" style="font-feature-settings:normal;font-variant-caps:normal;font-variant-ligatures:normal;font-variant-numeric:normal"/>
<path d="m158.58 535.27v-1.3958q-1.0521 1.6458-3.0938 1.6458-1.3229 0-2.4375-0.72917-1.1042-0.72916-1.7188-2.0312-0.60417-1.3125-0.60417-3.0104 0-1.6562 0.55209-3 0.55208-1.3542 1.6562-2.0729 1.1042-0.71875 2.4688-0.71875 1 0 1.7812 0.42708 0.78125 0.41667 1.2708 1.0938v-5.4792h1.8646v15.271zm-5.9271-5.5208q0 2.125 0.89584 3.1771 0.89583 1.0521 2.1146 1.0521 1.2292 0 2.0833-1 0.86458-1.0104 0.86458-3.0729 0-2.2708-0.875-3.3333t-2.1562-1.0625q-1.25 0-2.0937 1.0208-0.83334 1.0208-0.83334 3.2188z" fill="#000" style="font-feature-settings:normal;font-variant-caps:normal;font-variant-ligatures:normal;font-variant-numeric:normal"/>
<path d="m162.58 529.74q0-3.0729 1.7083-4.5521 1.4271-1.2292 3.4792-1.2292 2.2812 0 3.7292 1.5 1.4479 1.4896 1.4479 4.125 0 2.1354-0.64583 3.3646-0.63541 1.2188-1.8646 1.8958-1.2188 0.67708-2.6667 0.67708-2.3229 0-3.7604-1.4896-1.4271-1.4896-1.4271-4.2917zm1.9271 0q0 2.125 0.92708 3.1875 0.92708 1.0521 2.3333 1.0521 1.3958 0 2.3229-1.0625t0.92708-3.2396q0-2.0521-0.9375-3.1042-0.92708-1.0625-2.3125-1.0625-1.4062 0-2.3333 1.0521t-0.92708 3.1771z" fill="#000" style="font-feature-settings:normal;font-variant-caps:normal;font-variant-ligatures:normal;font-variant-numeric:normal"/>
<path d="m177.2 535.27-3.3854-11.062h1.9375l1.7604 6.3854 0.65625 2.375q0.0417-0.17708 0.57291-2.2812l1.7604-6.4792h1.9271l1.6562 6.4166 0.55208 2.1146 0.63541-2.1354 1.8958-6.3958h1.8229l-3.4583 11.062h-1.9479l-1.7604-6.625-0.42708-1.8854-2.2396 8.5104z" fill="#000" style="font-feature-settings:normal;font-variant-caps:normal;font-variant-ligatures:normal;font-variant-numeric:normal"/>
<path d="m197.11 535.27h-1.875v-11.948q-0.67709 0.64583-1.7812 1.2917-1.0938 0.64583-1.9688 0.96875v-1.8125q1.5729-0.73958 2.75-1.7917 1.1771-1.0521 1.6667-2.0417h1.2083z" fill="#000" style="font-feature-settings:normal;font-variant-caps:normal;font-variant-ligatures:normal;font-variant-numeric:normal"/>
<path d="m202.21 531.74 1.8021-0.16667q0.22917 1.2708 0.875 1.8438 0.64583 0.57291 1.6562 0.57291 0.86458 0 1.5104-0.39583 0.65625-0.39583 1.0729-1.0521 0.41666-0.66667 0.69791-1.7917 0.28125-1.125 0.28125-2.2917 0-0.125-0.0104-0.375-0.5625 0.89583-1.5417 1.4583-0.96875 0.55208-2.1042 0.55208-1.8958 0-3.2083-1.375-1.3125-1.375-1.3125-3.625 0-2.3229 1.3646-3.7396 1.375-1.4167 3.4375-1.4167 1.4896 0 2.7187 0.80208 1.2396 0.80209 1.875 2.2917 0.64583 1.4792 0.64583 4.2917 0 2.9271-0.63541 4.6667-0.63542 1.7292-1.8958 2.6354-1.25 0.90625-2.9375 0.90625-1.7917 0-2.9271-0.98959-1.1354-0.99999-1.3646-2.8021zm7.6771-6.7396q0-1.6146-0.86458-2.5625-0.85417-0.94792-2.0625-0.94792-1.25 0-2.1771 1.0208-0.92708 1.0208-0.92708 2.6458 0 1.4583 0.875 2.375 0.88541 0.90625 2.1771 0.90625 1.3021 0 2.1354-0.90625 0.84375-0.91667 0.84375-2.5312z" fill="#000" style="font-feature-settings:normal;font-variant-caps:normal;font-variant-ligatures:normal;font-variant-numeric:normal"/>
<path d="m214.08 531.74 1.8021-0.16667q0.22917 1.2708 0.875 1.8438 0.64583 0.57291 1.6562 0.57291 0.86458 0 1.5104-0.39583 0.65625-0.39583 1.0729-1.0521 0.41667-0.66667 0.69792-1.7917 0.28125-1.125 0.28125-2.2917 0-0.125-0.0104-0.375-0.5625 0.89583-1.5417 1.4583-0.96875 0.55208-2.1042 0.55208-1.8958 0-3.2083-1.375-1.3125-1.375-1.3125-3.625 0-2.3229 1.3646-3.7396 1.375-1.4167 3.4375-1.4167 1.4896 0 2.7187 0.80208 1.2396 0.80209 1.875 2.2917 0.64583 1.4792 0.64583 4.2917 0 2.9271-0.63542 4.6667-0.63541 1.7292-1.8958 2.6354-1.25 0.90625-2.9375 0.90625-1.7917 0-2.9271-0.98959-1.1354-0.99999-1.3646-2.8021zm7.6771-6.7396q0-1.6146-0.86458-2.5625-0.85417-0.94792-2.0625-0.94792-1.25 0-2.1771 1.0208-0.92708 1.0208-0.92708 2.6458 0 1.4583 0.875 2.375 0.88541 0.90625 2.1771 0.90625 1.3021 0 2.1354-0.90625 0.84375-0.91667 0.84375-2.5312z" fill="#000" style="font-feature-settings:normal;font-variant-caps:normal;font-variant-ligatures:normal;font-variant-numeric:normal"/>
<path d="m225.8 522v-1.8021h9.8854v1.4583q-1.4583 1.5521-2.8958 4.125-1.4271 2.5729-2.2083 5.2917-0.5625 1.9167-0.71875 4.1979h-1.9271q0.0312-1.8021 0.70833-4.3542 0.67708-2.5521 1.9375-4.9167 1.2708-2.375 2.6979-4z" fill="#000" style="font-feature-settings:normal;font-variant-caps:normal;font-variant-ligatures:normal;font-variant-numeric:normal"/>
<path d="m243.29 529.74q0-3.0729 1.7083-4.5521 1.4271-1.2292 3.4792-1.2292 2.2812 0 3.7292 1.5 1.4479 1.4896 1.4479 4.125 0 2.1354-0.64583 3.3646-0.63542 1.2188-1.8646 1.8958-1.2188 0.67708-2.6667 0.67708-2.3229 0-3.7604-1.4896-1.4271-1.4896-1.4271-4.2917zm1.9271 0q0 2.125 0.92708 3.1875 0.92709 1.0521 2.3333 1.0521 1.3958 0 2.3229-1.0625t0.92708-3.2396q0-2.0521-0.9375-3.1042-0.92708-1.0625-2.3125-1.0625-1.4062 0-2.3333 1.0521-0.92708 1.0521-0.92708 3.1771z" fill="#000" style="font-feature-settings:normal;font-variant-caps:normal;font-variant-ligatures:normal;font-variant-numeric:normal"/>
<path d="m255.86 535.27v-11.062h1.6875v1.5729q1.2188-1.8229 3.5208-1.8229 1 0 1.8333 0.36458 0.84375 0.35417 1.2604 0.9375 0.41667 0.58333 0.58334 1.3854 0.10416 0.52084 0.10416 1.8229v6.8021h-1.875v-6.7292q0-1.1458-0.21874-1.7083-0.21875-0.57291-0.78125-0.90625-0.55209-0.34374-1.3021-0.34374-1.1979 0-2.0729 0.76041-0.86458 0.76042-0.86458 2.8854v6.0417z" fill="#000" style="font-feature-settings:normal;font-variant-caps:normal;font-variant-ligatures:normal;font-variant-numeric:normal"/>
<path d="m273.87 535.27v-15.271h2.0729l8.0208 11.99v-11.99h1.9375v15.271h-2.0729l-8.0208-12v12z" fill="#000" style="font-feature-settings:normal;font-variant-caps:normal;font-variant-ligatures:normal;font-variant-numeric:normal"/>
<path d="m296.65 531.71 1.9375 0.23958q-0.45833 1.6979-1.6979 2.6354t-3.1667 0.9375q-2.4271 0-3.8542-1.4896-1.4167-1.5-1.4167-4.1979 0-2.7917 1.4375-4.3333 1.4375-1.5417 3.7292-1.5417 2.2188 0 3.625 1.5104 1.4062 1.5104 1.4062 4.25 0 0.16666-0.0104 0.49999h-8.25q0.10416 1.8229 1.0312 2.7917 0.92708 0.96875 2.3125 0.96875 1.0312 0 1.7604-0.54167 0.72916-0.54167 1.1562-1.7292zm-6.1562-3.0312h6.1771q-0.125-1.3958-0.70833-2.0938-0.89584-1.0833-2.3229-1.0833-1.2917 0-2.1771 0.86458-0.875 0.86459-0.96875 2.3125z" fill="#000" style="font-feature-settings:normal;font-variant-caps:normal;font-variant-ligatures:normal;font-variant-numeric:normal"/>
<path d="m302.99 535.27-3.3854-11.062h1.9375l1.7604 6.3854 0.65625 2.375q0.0417-0.17708 0.57292-2.2812l1.7604-6.4792h1.9271l1.6562 6.4166 0.55208 2.1146 0.63542-2.1354 1.8958-6.3958h1.8229l-3.4583 11.062h-1.9479l-1.7604-6.625-0.42709-1.8854-2.2396 8.5104z" fill="#000" style="font-feature-settings:normal;font-variant-caps:normal;font-variant-ligatures:normal;font-variant-numeric:normal"/>
<path d="m323.75 529.28v-1.7917l6.4687-0.0104v5.6666q-1.4896 1.1875-3.0729 1.7917-1.5833 0.59375-3.25 0.59375-2.25 0-4.0937-0.95834-1.8333-0.96874-2.7708-2.7917-0.9375-1.8229-0.9375-4.0729 0-2.2292 0.92708-4.1562 0.9375-1.9375 2.6875-2.875t4.0312-0.9375q1.6562 0 2.9896 0.54167 1.3438 0.53125 2.1042 1.4896 0.76041 0.95833 1.1562 2.5l-1.8229 0.5q-0.34375-1.1667-0.85416-1.8333-0.51042-0.66667-1.4583-1.0625-0.94791-0.40625-2.1042-0.40625-1.3854 0-2.3958 0.42708-1.0104 0.41667-1.6354 1.1042-0.61459 0.68749-0.95833 1.5104-0.58334 1.4167-0.58334 3.0729 0 2.0417 0.69792 3.4167 0.70833 1.375 2.0521 2.0417 1.3438 0.66666 2.8542 0.66666 1.3125 0 2.5625-0.5 1.25-0.51041 1.8958-1.0833v-2.8437z" fill="#000" style="font-feature-settings:normal;font-variant-caps:normal;font-variant-ligatures:normal;font-variant-numeric:normal"/>
<path d="m332.93 535.27v-11.062h1.6875v1.6771q0.64584-1.1771 1.1875-1.5521 0.55208-0.375 1.2083-0.375 0.94792 0 1.9271 0.60416l-0.64583 1.7396q-0.6875-0.40625-1.375-0.40625-0.61458 0-1.1042 0.375-0.48958 0.36459-0.69792 1.0208-0.3125 0.99999-0.3125 2.1875v5.7917z" fill="#000" style="font-feature-settings:normal;font-variant-caps:normal;font-variant-ligatures:normal;font-variant-numeric:normal"/>
<path d="m339.37 529.74q0-3.0729 1.7083-4.5521 1.4271-1.2292 3.4792-1.2292 2.2812 0 3.7292 1.5 1.4479 1.4896 1.4479 4.125 0 2.1354-0.64583 3.3646-0.63542 1.2188-1.8646 1.8958-1.2188 0.67708-2.6667 0.67708-2.3229 0-3.7604-1.4896-1.4271-1.4896-1.4271-4.2917zm1.9271 0q0 2.125 0.92709 3.1875 0.92708 1.0521 2.3333 1.0521 1.3958 0 2.3229-1.0625t0.92708-3.2396q0-2.0521-0.9375-3.1042-0.92708-1.0625-2.3125-1.0625-1.4062 0-2.3333 1.0521-0.92709 1.0521-0.92709 3.1771z" fill="#000" style="font-feature-settings:normal;font-variant-caps:normal;font-variant-ligatures:normal;font-variant-numeric:normal"/>
<path d="m359.2 535.27v-1.625q-1.2917 1.875-3.5104 1.875-0.97917 0-1.8333-0.375-0.84375-0.375-1.2604-0.9375-0.40625-0.57291-0.57292-1.3958-0.11458-0.55208-0.11458-1.75v-6.8542h1.875v6.1354q0 1.4688 0.11458 1.9792 0.17708 0.73958 0.75 1.1667 0.57292 0.41667 1.4167 0.41667 0.84374 0 1.5833-0.42708 0.73958-0.4375 1.0417-1.1771 0.3125-0.74999 0.3125-2.1667v-5.9271h1.875v11.062z" fill="#000" style="font-feature-settings:normal;font-variant-caps:normal;font-variant-ligatures:normal;font-variant-numeric:normal"/>
<path d="m363.82 535.27v-11.062h1.6875v1.5729q1.2187-1.8229 3.5208-1.8229 1 0 1.8333 0.36458 0.84375 0.35417 1.2604 0.9375 0.41666 0.58333 0.58333 1.3854 0.10417 0.52084 0.10417 1.8229v6.8021h-1.875v-6.7292q0-1.1458-0.21875-1.7083-0.21875-0.57291-0.78125-0.90625-0.55208-0.34374-1.3021-0.34374-1.1979 0-2.0729 0.76041-0.86459 0.76042-0.86459 2.8854v6.0417z" fill="#000" style="font-feature-settings:normal;font-variant-caps:normal;font-variant-ligatures:normal;font-variant-numeric:normal"/>
<path d="m382.87 535.27v-1.3958q-1.0521 1.6458-3.0938 1.6458-1.3229 0-2.4375-0.72917-1.1042-0.72916-1.7188-2.0312-0.60416-1.3125-0.60416-3.0104 0-1.6562 0.55208-3 0.55208-1.3542 1.6562-2.0729 1.1042-0.71875 2.4687-0.71875 1 0 1.7812 0.42708 0.78125 0.41667 1.2708 1.0938v-5.4792h1.8646v15.271zm-5.9271-5.5208q0 2.125 0.89583 3.1771 0.89583 1.0521 2.1146 1.0521 1.2292 0 2.0833-1 0.86458-1.0104 0.86458-3.0729 0-2.2708-0.875-3.3333t-2.1562-1.0625q-1.25 0-2.0937 1.0208-0.83333 1.0208-0.83333 3.2188z" fill="#000" style="font-feature-settings:normal;font-variant-caps:normal;font-variant-ligatures:normal;font-variant-numeric:normal"/>
<path d="m386.82 531.97 1.8542-0.29166q0.15625 1.1146 0.86458 1.7083 0.71875 0.59375 2 0.59375 1.2917 0 1.9167-0.52084 0.625-0.53125 0.625-1.2396 0-0.63541-0.55208-1-0.38541-0.25-1.9167-0.63541-2.0625-0.52084-2.8646-0.89583-0.79167-0.38542-1.2083-1.0521-0.40625-0.67708-0.40625-1.4896 0-0.73958 0.33333-1.3646 0.34375-0.63541 0.92708-1.0521 0.4375-0.32292 1.1875-0.54167 0.76042-0.22916 1.625-0.22916 1.3021 0 2.2812 0.375 0.98959 0.375 1.4583 1.0208 0.46874 0.63541 0.64583 1.7083l-1.8333 0.25q-0.125-0.85417-0.72917-1.3333-0.59375-0.47917-1.6875-0.47917-1.2917 0-1.8437 0.42708-0.55208 0.42709-0.55208 1 0 0.36459 0.22916 0.65625 0.22917 0.30208 0.71875 0.5 0.28125 0.10417 1.6562 0.47917 1.9896 0.53125 2.7708 0.875 0.79166 0.33333 1.2396 0.97916 0.44791 0.64583 0.44791 1.6042 0 0.93749-0.55208 1.7708-0.54166 0.82291-1.5729 1.2812-1.0312 0.44792-2.3333 0.44792-2.1562 0-3.2917-0.89583-1.125-0.89583-1.4375-2.6562z" fill="#000" style="font-feature-settings:normal;font-variant-caps:normal;font-variant-ligatures:normal;font-variant-numeric:normal"/>
<path d="m45 162h92v92h-92z" fill="none" stroke="#000" stroke-width="4"/>
<path d="m145 162h92v92h-92z" fill="none" stroke="#000" stroke-width="4"/>
<path d="m45 262h92v92h-92z" fill="none" stroke="#000" stroke-width="4"/>
<path d="m145 262h92v92h-92z" fill="none" stroke="#000" stroke-width="4"/>
<path d="m245 262h92v92h-92z" fill="none" stroke="#000" stroke-width="4"/>
<rect x="345" y="262" width="92" height="92" fill="none" stroke="#000" stroke-width="4"/>
<rect x="343" y="162" width="124" height="92" fill="none" stroke="#000" stroke-width="4"/>
<path d="m245 162h92v92h-92z" fill="none" stroke="#000" stroke-width="4"/>
<path d="m45 246h-27" fill="none" stroke="#000" stroke-width="4"/>
<path d="m45 240h-27" fill="none" stroke="#000" stroke-width="4"/>
<path d="m45 234h-27" fill="none" stroke="#000" stroke-width="4"/>
<path d="m145 246h-8" fill="none" stroke="#000" stroke-width="4"/>
<path d="m145 240h-8" fill="none" stroke="#000" stroke-width="4"/>
<path d="m245 246h-8" fill="none" stroke="#000" stroke-width="4"/>
<path d="m45 346h-27" fill="none" stroke="#000" stroke-width="4"/>
<path d="m45 340h-27" fill="none" stroke="#000" stroke-width="4"/>
<path d="m45 334h-27" fill="none" stroke="#000" stroke-width="4"/>
<path d="m145 346h-8" fill="none" stroke="#000" stroke-width="4"/>
<path d="m145 340h-8" fill="none" stroke="#000" stroke-width="4"/>
<path d="m145 334h-8" fill="none" stroke="#000" stroke-width="4"/>
<path d="m245 346h-8" fill="none" stroke="#000" stroke-width="4"/>
<path d="m245 340h-8" fill="none" stroke="#000" stroke-width="4"/>
<path d="m345 346h-8" fill="none" stroke="#000" stroke-width="4"/>
<path d="m45 328h-27" fill="none" stroke="#000" stroke-width="4"/>
<rect x="42" y="362" width="428" height="92" fill="none" stroke="#000" stroke-width="4"/>
<path d="m494 170h-27" fill="none" stroke="#000" stroke-width="4"/>
<path d="m494 176h-27" fill="none" stroke="#000" stroke-width="4"/>
<path d="m494 182h-27" fill="none" stroke="#000" stroke-width="4"/>
<path d="m494 434h-24" fill="none" stroke="#000" stroke-width="4"/>
<path d="m494 440h-24" fill="none" stroke="#000" stroke-width="4"/>
<path d="m494 446h-24" fill="none" stroke="#000" stroke-width="4"/>
<path d="m494 422h-24" fill="none" stroke="#000" stroke-width="4"/>
<path d="m494 428h-24" fill="none" stroke="#000" stroke-width="4"/>
<path d="m365 228v-40" fill="none" stroke="#000" stroke-width="4"/>
<path d="m375 228v-40" fill="none" stroke="#000" stroke-width="4"/>
<path d="m355 200.5h30" fill="none" stroke="#000" stroke-width="4"/>
<path d="m355 215.5h30" fill="none" stroke="#000" stroke-width="4"/>
<path d="m400 228v-40" fill="none" stroke="#000" stroke-width="4"/>
<path d="m410 228v-40" fill="none" stroke="#000" stroke-width="4"/>
<path d="m390 200.5h30" fill="none" stroke="#000" stroke-width="4"/>
<path d="m390 215.5h30" fill="none" stroke="#000" stroke-width="4"/>
<path d="m435 228v-40" fill="none" stroke="#000" stroke-width="4"/>
<path d="m445 228v-40" fill="none" stroke="#000" stroke-width="4"/>
<path d="m425 200.5h30" fill="none" stroke="#000" stroke-width="4"/>
<path d="m425 215.5h30" fill="none" stroke="#000" stroke-width="4"/>
<path d="m136 440v-64" fill="none" stroke="#000" stroke-width="4"/>
<path d="m152 440v-64" fill="none" stroke="#000" stroke-width="4"/>
<path d="m120 396h48" fill="none" stroke="#000" stroke-width="4"/>
<path d="m120 420h48" fill="none" stroke="#000" stroke-width="4"/>
<path d="m192 440v-64" fill="none" stroke="#000" stroke-width="4"/>
<path d="m208 440v-64" fill="none" stroke="#000" stroke-width="4"/>
<path d="m176 396h48" fill="none" stroke="#000" stroke-width="4"/>
<path d="m176 420h48" fill="none" stroke="#000" stroke-width="4"/>
<path d="m248 440v-64" fill="none" stroke="#000" stroke-width="4"/>
<path d="m264 440v-64" fill="none" stroke="#000" stroke-width="4"/>
<path d="m232 396h48" fill="none" stroke="#000" stroke-width="4"/>
<path d="m232 420h48" fill="none" stroke="#000" stroke-width="4"/>
<path d="m304 440v-64" fill="none" stroke="#000" stroke-width="4"/>
<path d="m320 440v-64" fill="none" stroke="#000" stroke-width="4"/>
<path d="m288 396h48" fill="none" stroke="#000" stroke-width="4"/>
<path d="m288 420h48" fill="none" stroke="#000" stroke-width="4"/>
<path d="m360 440v-64" fill="none" stroke="#000" stroke-width="4"/>
<path d="m376 440v-64" fill="none" stroke="#000" stroke-width="4"/>
<path d="m344 396h48" fill="none" stroke="#000" stroke-width="4"/>
<path d="m344 420h48" fill="none" stroke="#000" stroke-width="4"/>
<path d="m73.156 184.67h6.7812l11.594 17.344 11.656-17.344h6.7812l-15 22.406 16 24.25h-6.7812l-13.125-19.844-13.219 19.844h-6.8125l16.656-24.906z" fill="#000"/>
<path d="m191 190.89-8.5625 23.219h17.156zm-3.5625-6.2188h7.1562l17.781 46.656h-6.5625l-4.25-11.969h-21.031l-4.25 11.969h-6.6562z" fill="#000"/>
<path d="m273.22 184.67h6.3125v19.125h22.938v-19.125h6.3125v46.656h-6.3125v-22.219h-22.938v22.219h-6.3125z" fill="#000"/>
<path d="m73.141 284.22h6.3438v28.344q0 7.5 2.7188 10.812 2.7188 3.2812 8.8125 3.2812 6.0625 0 8.7812-3.2812 2.7188-3.3125 2.7188-10.812v-28.344h6.3438v29.125q0 9.125-4.5312 13.781-4.5 4.6562-13.313 4.6562-8.8438 0-13.375-4.6562-4.5-4.6562-4.5-13.781z" fill="#000"/>
<path d="m175.97 284.67h29.5v5.3125h-23.188v13.812h22.219v5.3125h-22.219v16.906h23.75v5.3125h-30.062z" fill="#000"/>
<path d="m291.03 288.92q-6.875 0-10.938 5.125-4.0312 5.125-4.0312 13.969 0 8.8125 4.0312 13.938 4.0625 5.125 10.938 5.125t10.875-5.125q4.0312-5.125 4.0312-13.938 0-8.8438-4.0312-13.969-4-5.125-10.875-5.125zm0-5.125q9.8125 0 15.688 6.5938 5.875 6.5625 5.875 17.625 0 11.031-5.875 17.625-5.875 6.5625-15.688 6.5625-9.8438 0-15.75-6.5625-5.875-6.5625-5.875-17.625t5.875-17.625q5.9062-6.5938 15.75-6.5938z" fill="#000"/>
<path d="m387.84 284.67h6.3125v46.656h-6.3125z" fill="#000"/>
</svg>
